<?xml version="1.0" encoding="UTF-8" standalone="no"?>
<!-- Created with Inkscape (http://www.inkscape.org/) -->

<svg
   xmlns:dc="http://purl.org/dc/elements/1.1/"
   xmlns:cc="http://creativecommons.org/ns#"
   xmlns:rdf="http://www.w3.org/1999/02/22-rdf-syntax-ns#"
   xmlns:svg="http://www.w3.org/2000/svg"
   xmlns="http://www.w3.org/2000/svg"
   xmlns:sodipodi="http://sodipodi.sourceforge.net/DTD/sodipodi-0.dtd"
   xmlns:inkscape="http://www.inkscape.org/namespaces/inkscape"
   width="264.58334mm"
   height="264.58334mm"
   viewBox="0 0 264.58334 264.58334"
   version="1.1"
   id="svg8"
   inkscape:version="0.92.2 (5c3e80d, 2017-08-06)"
   sodipodi:docname="logo.svg"
   inkscape:export-filename="I:\01-NICOLAS\Dropbox\sport-roadbook\assets\src\img\logo.png"
   inkscape:export-xdpi="90.047997"
   inkscape:export-ydpi="90.047997">
  <defs
     id="defs2">
    <clipPath
       clipPathUnits="userSpaceOnUse"
       id="clipPath904">
      <rect
         style="opacity:1;fill:#f9e093;fill-opacity:1;stroke:none;stroke-width:1.3863852;stroke-miterlimit:4;stroke-dasharray:5.54554072, 5.54554072;stroke-dashoffset:0;stroke-opacity:1"
         id="rect906"
         width="119.14938"
         height="212.00479"
         x="101.90082"
         y="47.740906"
         ry="8.4740768e-006" />
    </clipPath>
    <clipPath
       clipPathUnits="userSpaceOnUse"
       id="clipPath914">
      <path
         inkscape:connector-curvature="0"
         id="path916"
         d="m -29.165776,-147.01819 c 0,0 -5.24587,-0.63732 -7.182999,-3.04692 -1.937128,-2.4096 -2.078868,-4.44122 -2.149739,-5.05543 -0.07087,-0.61422 -0.118118,-1.63003 -0.118118,-1.63003 l -0.04725,-15.02455 -0.04725,-13.11105 -0.02363,-13.0638 v -14.31585 c 0,0 0.07087,-10.18173 0.02363,-10.27623 -0.04725,-0.0945 -0.377976,-0.47247 -0.377976,-0.47247 l -0.04725,-8.17373 0.377976,-0.33073 0.04725,-2.10249 -0.4016,-0.59059 0.02363,-8.10287 0.448847,-0.54334 -0.07087,-5.22079 -0.448847,-0.35435 -0.02363,-4.34673 0.496091,-0.28348 0.07087,-6.89807 c 0,0 0.165365,-4.016 2.716705,-5.9295 2.55134,-1.91351 5.409785,-2.4096 6.165736,-2.48047 0.755952,-0.0709 2.409598,-0.11812 2.409598,-0.11812 h 19.0641762 l 15.3316728,0.0236 3.638021,0.0236 c 0,0 5.079047,0.14174 7.181532,3.09468 2.102512,2.95294 2.126113,4.79557 2.14974,5.40978 0.02355,0.61421 0.118136,14.29223 0.118136,14.29223 l 0.02355,3.02381 0.354357,0.44884 0.07088,8.07925 -0.496094,0.66145 0.02355,19.891 -0.02355,16.25298 0.02355,11.59914 -0.02355,13.70164 -0.02355,15.35528 c 0,0 -0.02355,4.15774 -2.126112,6.35472 -2.102485,2.19699 -5.835015,3.16555 -6.165744,3.18918 -0.33073,0.0236 -20.7650746,-0.0236 -20.7650746,-0.0236 z"
         style="fill:none;fill-rule:evenodd;stroke:#000000;stroke-width:0.26458332px;stroke-linecap:butt;stroke-linejoin:miter;stroke-opacity:1" />
    </clipPath>
  </defs>
  <sodipodi:namedview
     id="base"
     pagecolor="#ffffff"
     bordercolor="#666666"
     borderopacity="1.0"
     inkscape:pageopacity="0.0"
     inkscape:pageshadow="2"
     inkscape:zoom="0.24748737"
     inkscape:cx="840.78242"
     inkscape:cy="868.58249"
     inkscape:document-units="mm"
     inkscape:current-layer="layer1"
     showgrid="false"
     fit-margin-top="0"
     fit-margin-left="0"
     fit-margin-right="0"
     fit-margin-bottom="0"
     inkscape:window-width="1440"
     inkscape:window-height="810"
     inkscape:window-x="1994"
     inkscape:window-y="177"
     inkscape:window-maximized="0">
    <sodipodi:guide
       position="1.2695312e-005,1.2499999e-006"
       orientation="0,1023.9999"
       id="guide88"
       inkscape:locked="false" />
    <sodipodi:guide
       position="270.93332,1.2499999e-006"
       orientation="-1023.9999,0"
       id="guide90"
       inkscape:locked="false" />
    <sodipodi:guide
       position="270.93332,270.93331"
       orientation="0,-1023.9999"
       id="guide92"
       inkscape:locked="false" />
    <sodipodi:guide
       position="1.2695312e-005,270.93331"
       orientation="1023.9999,0"
       id="guide94"
       inkscape:locked="false" />
  </sodipodi:namedview>
  <metadata
     id="metadata5">
    <rdf:RDF>
      <cc:Work
         rdf:about="">
        <dc:format>image/svg+xml</dc:format>
        <dc:type
           rdf:resource="http://purl.org/dc/dcmitype/StillImage" />
        <dc:title></dc:title>
      </cc:Work>
    </rdf:RDF>
  </metadata>
  <g
     inkscape:label="Calque 1"
     inkscape:groupmode="layer"
     id="layer1"
     transform="translate(1019.9005,640.56799)">
    <rect
       style="opacity:1;fill:#f9e093;fill-opacity:1;stroke:none;stroke-width:0.16478431;stroke-miterlimit:4;stroke-dasharray:0.65913724, 0.65913724;stroke-dashoffset:0;stroke-opacity:1"
       id="rect68"
       width="264.58334"
       height="264.58334"
       x="-1019.9005"
       y="-640.56799"
       ry="2.8762627e-006" />
    <g
       id="g879"
       transform="matrix(0.68531653,0,0,0.68531653,-123.56694,-313.7235)" />
    <g
       id="g100"
       transform="matrix(0.97656255,0,0,0.97656255,-23.903871,-8.8121227)">
      <text
         id="text1372"
         y="-490.75049"
         x="-995.79993"
         style="font-style:normal;font-weight:normal;font-size:60.68613815px;line-height:29.25938988px;font-family:sans-serif;letter-spacing:0px;word-spacing:0px;fill:#00b4b1;fill-opacity:1;stroke:none;stroke-width:3.25104332px;stroke-linecap:butt;stroke-linejoin:miter;stroke-opacity:1"
         xml:space="preserve"><tspan
           style="font-style:normal;font-variant:normal;font-weight:bold;font-stretch:normal;font-family:Impact;-inkscape-font-specification:'Impact Bold';fill:#00b4b1;fill-opacity:1;stroke-width:3.25104332px"
           y="-490.75049"
           x="-995.79993"
           id="tspan1370"
           sodipodi:role="line">Feezify</tspan></text>
      <text
         xml:space="preserve"
         style="font-style:normal;font-weight:normal;font-size:36.83414078px;line-height:17.75932121px;font-family:sans-serif;letter-spacing:0px;word-spacing:0px;fill:#ffffff;fill-opacity:1;stroke:none;stroke-width:1.97325754px;stroke-linecap:butt;stroke-linejoin:miter;stroke-opacity:1"
         x="-828.09637"
         y="-490.345"
         id="text1376"><tspan
           sodipodi:role="line"
           id="tspan1374"
           x="-828.09637"
           y="-490.345"
           style="font-style:normal;font-variant:normal;font-weight:bold;font-stretch:normal;font-family:Androgyne;-inkscape-font-specification:'Androgyne Bold';fill:#ffffff;fill-opacity:1;stroke-width:1.97325754px">.me</tspan></text>
    </g>
    <path
       sodipodi:nodetypes="cscccccc"
       inkscape:connector-curvature="0"
       id="path1378"
       d="m -755.31721,-628.18873 -264.58329,9.5029 c 0,0 0,-10e-6 0,-10e-6 v -21.88214 0 h 264.58329 v 0 c 4e-5,45.55615 0,-26.85109 0,12.37925 z"
       style="opacity:1;fill:#00b4b1;fill-opacity:1;stroke:none;stroke-width:1.70459509;stroke-miterlimit:4;stroke-dasharray:6.81838061, 6.81838061;stroke-dashoffset:0;stroke-opacity:1" />
    <path
       style="opacity:1;fill:#00b4b1;fill-opacity:1;stroke:none;stroke-width:1.70459509;stroke-miterlimit:4;stroke-dasharray:6.81838061, 6.81838061;stroke-dashoffset:0;stroke-opacity:1"
       d="m -1019.9005,-388.3639 264.58333,-9.50291 c 0,0 0,2e-5 0,2e-5 v 21.88214 0 h -264.58333 v 0 c 0,-45.55615 0,26.85109 0,-12.37925 z"
       id="path1380"
       inkscape:connector-curvature="0"
       sodipodi:nodetypes="cscccccc" />
  </g>
</svg>
